<svg width="40" height="31" viewBox="0 0 40 31" fill="none" xmlns="http://www.w3.org/2000/svg">
<path d="M33.8561 2.59918C31.2677 1.39468 28.511 0.507156 25.6069 0C25.2492 0.633946 24.8283 1.50034 24.5547 2.19768C21.4823 1.73278 18.4309 1.73278 15.4217 2.19768C15.1271 1.50034 14.7062 0.633946 14.3485 0C11.4444 0.507156 8.68766 1.39468 6.09927 2.59918C0.880389 10.5024 -0.52955 18.2154 0.164897 25.8016C3.63713 28.4008 6.98311 29.9646 10.287 31C11.1077 29.88 11.8232 28.6755 12.4545 27.4288C11.255 26.985 10.1186 26.4145 9.04541 25.7594C9.34002 25.5481 9.61359 25.3156 9.88716 25.1043C16.4739 28.1895 23.6077 28.1895 30.1103 25.1043C30.3839 25.3368 30.6574 25.5481 30.952 25.7594C29.8788 26.4145 28.7214 26.9639 27.5429 27.4288C28.1743 28.6755 28.8897 29.88 29.7105 31C33.0143 29.9646 36.3814 28.4008 39.8326 25.8016C40.6533 16.9898 38.4226 9.36126 33.8982 2.59918H33.8561ZM13.3384 21.1527C11.3602 21.1527 9.73985 19.3143 9.73985 17.0532C9.73985 14.7921 11.3181 12.9537 13.3384 12.9537C15.3586 12.9537 16.9579 14.7921 16.9368 17.0532C16.9368 19.2931 15.3586 21.1527 13.3384 21.1527ZM26.617 21.1527C24.6389 21.1527 23.0185 19.3143 23.0185 17.0532C23.0185 14.7921 24.5968 12.9537 26.617 12.9537C28.6372 12.9537 30.2366 14.7921 30.2155 17.0532C30.2155 19.2931 28.6372 21.1527 26.617 21.1527Z" fill="white" fill-opacity="0.25"/>
</svg>
