<svg width="35" height="40" viewBox="0 0 35 40" fill="none" xmlns="http://www.w3.org/2000/svg">
<path d="M18.3823 0.033349C20.5811 1.26719e-07 22.7637 0.0173414 24.945 0C25.0176 2.70926 26.1243 5.14774 27.8852 6.95391L27.8826 6.95124C29.7778 8.6467 32.2438 9.74588 34.9624 9.93264L35 9.9353V16.6531C32.4319 16.5891 30.0168 16.0008 27.8396 14.9897L27.9497 15.035C26.8967 14.5321 26.0061 14.0159 25.1599 13.4396L25.2298 13.485C25.2137 18.3526 25.2459 23.2202 25.1962 28.0704C25.0579 30.5423 24.2305 32.7966 22.9034 34.6789L22.9303 34.6375C20.7114 37.7936 17.1171 39.8653 13.0298 39.988H13.011C12.8458 39.996 12.651 40 12.4549 40C10.1312 40 7.95934 39.357 6.10845 38.2405L6.16218 38.2712C2.79351 36.2583 0.469829 32.814 0.0400153 28.8081L0.0346427 28.7534C0.00106352 27.9197 -0.0150546 27.086 0.0185246 26.2696C0.676677 19.8946 6.05472 14.963 12.5919 14.963C13.3266 14.963 14.0466 15.0257 14.7464 15.1444L14.6711 15.1337C14.7047 17.6002 14.604 20.068 14.604 22.5345C14.0358 22.3304 13.3804 22.2117 12.6967 22.2117C10.1877 22.2117 8.05336 23.8044 7.26358 26.0281L7.25149 26.0682C7.07285 26.6378 6.96942 27.2927 6.96942 27.9704C6.96942 28.2452 6.98688 28.5173 7.01912 28.7841L7.01643 28.7521C7.46236 31.4814 9.81828 33.541 12.6591 33.541C12.741 33.541 12.8216 33.5397 12.9022 33.5357H12.8901C14.8552 33.477 16.561 32.4271 17.5254 30.8757L17.5388 30.8517C17.8974 30.3555 18.1432 29.7552 18.2252 29.1029L18.2265 29.0842C18.3944 26.1002 18.3273 23.1335 18.3434 20.1494C18.3595 13.4316 18.3273 6.72981 18.377 0.0293471L18.3823 0.033349Z" fill="white" fill-opacity="0.25"/>
</svg>
